<?xml version="1.0" standalone="no"?>
<!DOCTYPE svg PUBLIC "-//W3C//DTD SVG 20010904//EN"
 "http://www.w3.org/TR/2001/REC-SVG-20010904/DTD/svg10.dtd">
<svg version="1.0" xmlns="http://www.w3.org/2000/svg"
 width="512.000000pt" height="512.000000pt" viewBox="0 0 512.000000 512.000000"
 preserveAspectRatio="xMidYMid meet">
<metadata>
Created by potrace 1.14, written by Peter Selinger 2001-2017
</metadata>
<g transform="translate(0.000000,512.000000) scale(0.100000,-0.100000)"
fill="#000000" stroke="none">
<path d="M4484 4984 c-84 -41 -87 -168 -4 -217 15 -9 31 -31 36 -49 l10 -33
-80 -32 c-44 -18 -83 -33 -86 -33 -15 0 -29 67 -21 103 19 80 -29 145 -113
153 -41 4 -48 1 -85 -34 -39 -37 -47 -57 -41 -107 3 -31 30 -71 60 -88 15 -9
31 -31 38 -53 6 -21 10 -39 9 -39 -1 -1 -37 -15 -79 -32 l-77 -31 -14 36 c-10
24 -12 43 -6 54 14 26 11 66 -8 105 -22 48 -84 77 -134 62 -112 -32 -133 -161
-37 -225 29 -20 56 -80 42 -94 -5 -4 -30 -15 -56 -25 -73 -27 -81 -41 -75
-127 l6 -73 -41 -42 c-28 -29 -41 -51 -42 -73 -1 -22 -11 -40 -34 -59 -17 -16
-98 -92 -180 -169 -81 -78 -157 -149 -169 -159 -12 -11 -81 -76 -155 -145 -73
-69 -146 -139 -163 -154 -16 -15 -88 -82 -160 -150 -71 -67 -148 -139 -170
-159 -44 -41 -255 -239 -314 -295 -89 -84 -132 -109 -165 -97 -70 27 -61 236
16 394 26 55 111 189 138 218 71 76 64 220 -14 297 -64 63 -166 79 -249 39
-101 -49 -428 -435 -630 -744 -171 -260 -355 -414 -552 -461 -308 -73 -417
-125 -565 -267 -154 -148 -264 -360 -305 -589 -18 -95 -13 -339 9 -436 36
-166 111 -340 209 -484 67 -98 243 -273 336 -334 230 -150 422 -210 676 -210
248 0 429 63 618 213 181 144 300 344 356 601 37 167 96 281 196 381 48 48 86
72 214 136 334 166 623 372 665 473 30 75 -2 168 -72 206 -36 20 -123 24 -145
7 -7 -5 -33 -17 -59 -27 -140 -51 -399 20 -454 125 -21 42 -15 120 14 180 12
24 57 80 98 124 42 44 106 112 142 150 61 66 121 130 301 320 252 268 359 381
380 404 13 14 86 91 161 171 75 80 161 171 190 203 29 32 60 57 69 56 32 -3
40 2 83 46 l45 45 49 -16 c79 -25 227 -27 301 -5 127 39 174 79 256 225 104
183 178 246 230 198 21 -19 39 -26 63 -23 19 2 124 114 130 138 4 13 10 23 14
23 9 0 19 44 26 112 18 163 -162 257 -356 186 -89 -32 -86 -32 -100 2 -9 21
-10 38 -3 53 24 54 -4 124 -62 151 -41 20 -71 20 -111 0z"/>
</g>
</svg>
